<svg width="245" height="46" viewBox="0 0 245 46" fill="none" xmlns="http://www.w3.org/2000/svg">
<g clip-path="url(#clip0_9231_671)">
<path d="M8.28263 12.6C8.38663 12.6 8.46663 12.632 8.52263 12.696C8.58663 12.76 8.61863 12.84 8.61863 12.936V20.616C8.61863 20.736 8.57863 20.832 8.49863 20.904C8.42663 20.968 8.34263 21 8.24663 21C8.19863 21 8.14663 20.992 8.09063 20.976C8.03463 20.952 7.99063 20.92 7.95863 20.88L2.60663 13.668L2.81063 13.56V20.676C2.81063 20.764 2.77863 20.84 2.71463 20.904C2.65063 20.968 2.57063 21 2.47463 21C2.37063 21 2.28663 20.968 2.22263 20.904C2.16663 20.84 2.13863 20.764 2.13863 20.676V12.96C2.13863 12.84 2.17463 12.752 2.24663 12.696C2.31863 12.632 2.39863 12.6 2.48663 12.6C2.53463 12.6 2.58663 12.612 2.64263 12.636C2.69863 12.652 2.74263 12.684 2.77463 12.732L8.06663 19.86L7.94663 20.076V12.936C7.94663 12.84 7.97863 12.76 8.04263 12.696C8.11463 12.632 8.19463 12.6 8.28263 12.6ZM15.9571 14.868C16.0611 14.868 16.1451 14.904 16.2091 14.976C16.2811 15.048 16.3171 15.136 16.3171 15.24V20.64C16.3171 20.736 16.2811 20.82 16.2091 20.892C16.1371 20.964 16.0531 21 15.9571 21C15.8531 21 15.7651 20.964 15.6931 20.892C15.6291 20.82 15.5971 20.736 15.5971 20.64V19.212L15.8011 19.116C15.8011 19.34 15.7371 19.568 15.6091 19.8C15.4891 20.032 15.3211 20.248 15.1051 20.448C14.8891 20.648 14.6331 20.812 14.3371 20.94C14.0491 21.06 13.7371 21.12 13.4011 21.12C12.8571 21.12 12.3691 20.98 11.9371 20.7C11.5131 20.42 11.1771 20.036 10.9291 19.548C10.6891 19.06 10.5691 18.512 10.5691 17.904C10.5691 17.28 10.6931 16.732 10.9411 16.26C11.1891 15.78 11.5251 15.404 11.9491 15.132C12.3731 14.86 12.8531 14.724 13.3891 14.724C13.7331 14.724 14.0531 14.784 14.3491 14.904C14.6531 15.024 14.9171 15.188 15.1411 15.396C15.3651 15.604 15.5371 15.844 15.6571 16.116C15.7851 16.38 15.8491 16.656 15.8491 16.944L15.5971 16.764V15.24C15.5971 15.136 15.6291 15.048 15.6931 14.976C15.7651 14.904 15.8531 14.868 15.9571 14.868ZM13.4611 20.448C13.8851 20.448 14.2611 20.34 14.5891 20.124C14.9171 19.9 15.1731 19.596 15.3571 19.212C15.5491 18.82 15.6451 18.384 15.6451 17.904C15.6451 17.432 15.5491 17.008 15.3571 16.632C15.1731 16.256 14.9171 15.956 14.5891 15.732C14.2611 15.508 13.8851 15.396 13.4611 15.396C13.0451 15.396 12.6691 15.504 12.3331 15.72C12.0051 15.936 11.7451 16.232 11.5531 16.608C11.3691 16.984 11.2771 17.416 11.2771 17.904C11.2771 18.384 11.3691 18.82 11.5531 19.212C11.7451 19.596 12.0051 19.9 12.3331 20.124C12.6611 20.34 13.0371 20.448 13.4611 20.448ZM18.0504 14.892H20.8464C20.9424 14.892 21.0224 14.928 21.0864 15C21.1504 15.064 21.1824 15.144 21.1824 15.24C21.1824 15.328 21.1504 15.404 21.0864 15.468C21.0224 15.532 20.9424 15.564 20.8464 15.564H18.0504C17.9544 15.564 17.8704 15.532 17.7984 15.468C17.7344 15.396 17.7024 15.316 17.7024 15.228C17.7024 15.132 17.7344 15.052 17.7984 14.988C17.8704 14.924 17.9544 14.892 18.0504 14.892ZM19.2864 13.2C19.3904 13.2 19.4744 13.236 19.5384 13.308C19.6104 13.38 19.6464 13.464 19.6464 13.56V19.584C19.6464 19.808 19.6744 19.976 19.7304 20.088C19.7944 20.2 19.8744 20.276 19.9704 20.316C20.0664 20.348 20.1624 20.364 20.2584 20.364C20.3224 20.364 20.3784 20.356 20.4264 20.34C20.4824 20.316 20.5424 20.304 20.6064 20.304C20.6784 20.304 20.7384 20.332 20.7864 20.388C20.8424 20.444 20.8704 20.516 20.8704 20.604C20.8704 20.716 20.8064 20.812 20.6784 20.892C20.5504 20.964 20.3984 21 20.2224 21C20.1504 21 20.0424 20.996 19.8984 20.988C19.7544 20.972 19.6064 20.928 19.4544 20.856C19.3024 20.776 19.1744 20.64 19.0704 20.448C18.9744 20.256 18.9264 19.98 18.9264 19.62V13.56C18.9264 13.464 18.9584 13.38 19.0224 13.308C19.0944 13.236 19.1824 13.2 19.2864 13.2ZM23.4488 20.64C23.4488 20.736 23.4128 20.82 23.3408 20.892C23.2688 20.964 23.1848 21 23.0888 21C22.9848 21 22.8968 20.964 22.8248 20.892C22.7608 20.82 22.7288 20.736 22.7288 20.64V15.12C22.7288 15.024 22.7608 14.94 22.8248 14.868C22.8968 14.796 22.9848 14.76 23.0888 14.76C23.1928 14.76 23.2768 14.796 23.3408 14.868C23.4128 14.94 23.4488 15.024 23.4488 15.12V20.64ZM23.0888 13.956C22.9208 13.956 22.7928 13.92 22.7048 13.848C22.6248 13.768 22.5848 13.656 22.5848 13.512V13.392C22.5848 13.248 22.6288 13.14 22.7168 13.068C22.8128 12.988 22.9408 12.948 23.1008 12.948C23.2528 12.948 23.3688 12.988 23.4488 13.068C23.5368 13.14 23.5808 13.248 23.5808 13.392V13.512C23.5808 13.656 23.5368 13.768 23.4488 13.848C23.3688 13.92 23.2488 13.956 23.0888 13.956ZM31.2713 17.928C31.2713 18.536 31.1393 19.084 30.8753 19.572C30.6113 20.052 30.2513 20.432 29.7953 20.712C29.3393 20.984 28.8193 21.12 28.2353 21.12C27.6673 21.12 27.1513 20.984 26.6873 20.712C26.2313 20.432 25.8673 20.052 25.5953 19.572C25.3313 19.084 25.1993 18.536 25.1993 17.928C25.1993 17.312 25.3313 16.764 25.5953 16.284C25.8673 15.804 26.2313 15.424 26.6873 15.144C27.1513 14.864 27.6673 14.724 28.2353 14.724C28.8193 14.724 29.3393 14.864 29.7953 15.144C30.2513 15.424 30.6113 15.804 30.8753 16.284C31.1393 16.764 31.2713 17.312 31.2713 17.928ZM30.5513 17.928C30.5513 17.44 30.4513 17.008 30.2513 16.632C30.0513 16.248 29.7753 15.948 29.4233 15.732C29.0793 15.508 28.6833 15.396 28.2353 15.396C27.8033 15.396 27.4113 15.508 27.0593 15.732C26.7073 15.948 26.4273 16.248 26.2193 16.632C26.0193 17.008 25.9193 17.44 25.9193 17.928C25.9193 18.416 26.0193 18.848 26.2193 19.224C26.4273 19.6 26.7073 19.9 27.0593 20.124C27.4113 20.34 27.8033 20.448 28.2353 20.448C28.6833 20.448 29.0793 20.34 29.4233 20.124C29.7753 19.9 30.0513 19.6 30.2513 19.224C30.4513 18.848 30.5513 18.416 30.5513 17.928ZM35.9334 14.724C36.4614 14.724 36.8814 14.832 37.1934 15.048C37.5134 15.256 37.7414 15.544 37.8774 15.912C38.0214 16.272 38.0934 16.672 38.0934 17.112V20.64C38.0934 20.736 38.0574 20.82 37.9854 20.892C37.9134 20.964 37.8294 21 37.7334 21C37.6214 21 37.5334 20.964 37.4694 20.892C37.4054 20.82 37.3734 20.736 37.3734 20.64V17.148C37.3734 16.828 37.3214 16.536 37.2174 16.272C37.1134 16.008 36.9414 15.796 36.7014 15.636C36.4694 15.476 36.1614 15.396 35.7774 15.396C35.4334 15.396 35.1054 15.476 34.7934 15.636C34.4894 15.796 34.2414 16.008 34.0494 16.272C33.8574 16.536 33.7614 16.828 33.7614 17.148V20.64C33.7614 20.736 33.7254 20.82 33.6534 20.892C33.5814 20.964 33.4974 21 33.4014 21C33.2894 21 33.2014 20.964 33.1374 20.892C33.0734 20.82 33.0414 20.736 33.0414 20.64V15.264C33.0414 15.168 33.0734 15.084 33.1374 15.012C33.2094 14.94 33.2974 14.904 33.4014 14.904C33.5054 14.904 33.5894 14.94 33.6534 15.012C33.7254 15.084 33.7614 15.168 33.7614 15.264V16.272L33.4854 16.704C33.5014 16.448 33.5814 16.204 33.7254 15.972C33.8774 15.732 34.0694 15.52 34.3014 15.336C34.5334 15.144 34.7894 14.996 35.0694 14.892C35.3574 14.78 35.6454 14.724 35.9334 14.724ZM45.2469 14.868C45.3509 14.868 45.4349 14.904 45.4989 14.976C45.5709 15.048 45.6069 15.136 45.6069 15.24V20.64C45.6069 20.736 45.5709 20.82 45.4989 20.892C45.4269 20.964 45.3429 21 45.2469 21C45.1429 21 45.0549 20.964 44.9829 20.892C44.9189 20.82 44.8869 20.736 44.8869 20.64V19.212L45.0909 19.116C45.0909 19.34 45.0269 19.568 44.8989 19.8C44.7789 20.032 44.6109 20.248 44.3949 20.448C44.1789 20.648 43.9229 20.812 43.6269 20.94C43.3389 21.06 43.0269 21.12 42.6909 21.12C42.1469 21.12 41.6589 20.98 41.2269 20.7C40.8029 20.42 40.4669 20.036 40.2189 19.548C39.9789 19.06 39.8589 18.512 39.8589 17.904C39.8589 17.28 39.9829 16.732 40.2309 16.26C40.4789 15.78 40.8149 15.404 41.2389 15.132C41.6629 14.86 42.1429 14.724 42.6789 14.724C43.0229 14.724 43.3429 14.784 43.6389 14.904C43.9429 15.024 44.2069 15.188 44.4309 15.396C44.6549 15.604 44.8269 15.844 44.9469 16.116C45.0749 16.38 45.1389 16.656 45.1389 16.944L44.8869 16.764V15.24C44.8869 15.136 44.9189 15.048 44.9829 14.976C45.0549 14.904 45.1429 14.868 45.2469 14.868ZM42.7509 20.448C43.1749 20.448 43.5509 20.34 43.8789 20.124C44.2069 19.9 44.4629 19.596 44.6469 19.212C44.8389 18.82 44.9349 18.384 44.9349 17.904C44.9349 17.432 44.8389 17.008 44.6469 16.632C44.4629 16.256 44.2069 15.956 43.8789 15.732C43.5509 15.508 43.1749 15.396 42.7509 15.396C42.3349 15.396 41.9589 15.504 41.6229 15.72C41.2949 15.936 41.0349 16.232 40.8429 16.608C40.6589 16.984 40.5669 17.416 40.5669 17.904C40.5669 18.384 40.6589 18.82 40.8429 19.212C41.0349 19.596 41.2949 19.9 41.6229 20.124C41.9509 20.34 42.3269 20.448 42.7509 20.448ZM48.5283 20.64C48.5283 20.736 48.4923 20.82 48.4203 20.892C48.3483 20.964 48.2643 21 48.1683 21C48.0643 21 47.9763 20.964 47.9043 20.892C47.8403 20.82 47.8083 20.736 47.8083 20.64V12.48C47.8083 12.384 47.8443 12.3 47.9163 12.228C47.9883 12.156 48.0723 12.12 48.1683 12.12C48.2723 12.12 48.3563 12.156 48.4203 12.228C48.4923 12.3 48.5283 12.384 48.5283 12.48V20.64ZM60.5872 12.6C60.6912 12.6 60.7712 12.632 60.8272 12.696C60.8912 12.76 60.9232 12.84 60.9232 12.936V20.616C60.9232 20.736 60.8832 20.832 60.8032 20.904C60.7312 20.968 60.6472 21 60.5512 21C60.5032 21 60.4512 20.992 60.3952 20.976C60.3392 20.952 60.2952 20.92 60.2632 20.88L54.9112 13.668L55.1152 13.56V20.676C55.1152 20.764 55.0832 20.84 55.0192 20.904C54.9552 20.968 54.8752 21 54.7792 21C54.6752 21 54.5912 20.968 54.5272 20.904C54.4712 20.84 54.4432 20.764 54.4432 20.676V12.96C54.4432 12.84 54.4792 12.752 54.5512 12.696C54.6232 12.632 54.7032 12.6 54.7912 12.6C54.8392 12.6 54.8912 12.612 54.9472 12.636C55.0032 12.652 55.0472 12.684 55.0792 12.732L60.3712 19.86L60.2512 20.076V12.936C60.2512 12.84 60.2832 12.76 60.3472 12.696C60.4192 12.632 60.4992 12.6 60.5872 12.6ZM68.9456 17.928C68.9456 18.536 68.8136 19.084 68.5496 19.572C68.2856 20.052 67.9256 20.432 67.4696 20.712C67.0136 20.984 66.4936 21.12 65.9096 21.12C65.3416 21.12 64.8256 20.984 64.3616 20.712C63.9056 20.432 63.5416 20.052 63.2696 19.572C63.0056 19.084 62.8736 18.536 62.8736 17.928C62.8736 17.312 63.0056 16.764 63.2696 16.284C63.5416 15.804 63.9056 15.424 64.3616 15.144C64.8256 14.864 65.3416 14.724 65.9096 14.724C66.4936 14.724 67.0136 14.864 67.4696 15.144C67.9256 15.424 68.2856 15.804 68.5496 16.284C68.8136 16.764 68.9456 17.312 68.9456 17.928ZM68.2256 17.928C68.2256 17.44 68.1256 17.008 67.9256 16.632C67.7256 16.248 67.4496 15.948 67.0976 15.732C66.7536 15.508 66.3576 15.396 65.9096 15.396C65.4776 15.396 65.0856 15.508 64.7336 15.732C64.3816 15.948 64.1016 16.248 63.8936 16.632C63.6936 17.008 63.5936 17.44 63.5936 17.928C63.5936 18.416 63.6936 18.848 63.8936 19.224C64.1016 19.6 64.3816 19.9 64.7336 20.124C65.0856 20.34 65.4776 20.448 65.9096 20.448C66.3576 20.448 66.7536 20.34 67.0976 20.124C67.4496 19.9 67.7256 19.6 67.9256 19.224C68.1256 18.848 68.2256 18.416 68.2256 17.928ZM75.7438 12.12C75.8478 12.12 75.9318 12.156 75.9958 12.228C76.0678 12.292 76.1038 12.376 76.1038 12.48V20.64C76.1038 20.736 76.0678 20.82 75.9958 20.892C75.9238 20.964 75.8398 21 75.7438 21C75.6398 21 75.5518 20.964 75.4798 20.892C75.4158 20.82 75.3838 20.736 75.3838 20.64V19.212L75.5878 19.044C75.5878 19.268 75.5278 19.504 75.4078 19.752C75.2878 19.992 75.1158 20.216 74.8918 20.424C74.6758 20.632 74.4198 20.8 74.1238 20.928C73.8358 21.056 73.5238 21.12 73.1878 21.12C72.6518 21.12 72.1678 20.98 71.7358 20.7C71.3118 20.42 70.9758 20.04 70.7278 19.56C70.4798 19.08 70.3558 18.532 70.3558 17.916C70.3558 17.308 70.4798 16.764 70.7278 16.284C70.9758 15.796 71.3118 15.416 71.7358 15.144C72.1598 14.864 72.6398 14.724 73.1758 14.724C73.5038 14.724 73.8158 14.784 74.1118 14.904C74.4078 15.024 74.6678 15.188 74.8918 15.396C75.1238 15.604 75.3038 15.844 75.4318 16.116C75.5678 16.38 75.6358 16.656 75.6358 16.944L75.3838 16.764V12.48C75.3838 12.384 75.4158 12.3 75.4798 12.228C75.5518 12.156 75.6398 12.12 75.7438 12.12ZM73.2478 20.448C73.6798 20.448 74.0558 20.34 74.3758 20.124C74.7038 19.9 74.9598 19.6 75.1438 19.224C75.3358 18.84 75.4318 18.404 75.4318 17.916C75.4318 17.436 75.3358 17.008 75.1438 16.632C74.9598 16.248 74.7038 15.948 74.3758 15.732C74.0478 15.508 73.6718 15.396 73.2478 15.396C72.8318 15.396 72.4558 15.508 72.1198 15.732C71.7918 15.948 71.5318 16.248 71.3398 16.632C71.1558 17.008 71.0638 17.436 71.0638 17.916C71.0638 18.396 71.1558 18.828 71.3398 19.212C71.5318 19.596 71.7918 19.9 72.1198 20.124C72.4558 20.34 72.8318 20.448 73.2478 20.448ZM81.0052 21.12C80.3892 21.12 79.8452 20.988 79.3732 20.724C78.9012 20.46 78.5332 20.092 78.2692 19.62C78.0052 19.148 77.8732 18.596 77.8732 17.964C77.8732 17.284 78.0052 16.704 78.2692 16.224C78.5412 15.744 78.8892 15.376 79.3132 15.12C79.7452 14.856 80.2012 14.724 80.6812 14.724C81.0332 14.724 81.3732 14.788 81.7012 14.916C82.0372 15.036 82.3332 15.22 82.5892 15.468C82.8532 15.708 83.0612 16.004 83.2132 16.356C83.3732 16.708 83.4612 17.116 83.4772 17.58C83.4692 17.676 83.4292 17.76 83.3572 17.832C83.2852 17.896 83.2012 17.928 83.1052 17.928H78.2932L78.1492 17.28H82.8772L82.7212 17.424V17.184C82.6892 16.808 82.5692 16.488 82.3612 16.224C82.1532 15.96 81.9012 15.76 81.6052 15.624C81.3092 15.488 81.0012 15.42 80.6812 15.42C80.4412 15.42 80.1932 15.468 79.9372 15.564C79.6892 15.66 79.4612 15.812 79.2532 16.02C79.0532 16.22 78.8892 16.48 78.7612 16.8C78.6332 17.112 78.5692 17.484 78.5692 17.916C78.5692 18.388 78.6652 18.816 78.8572 19.2C79.0492 19.584 79.3252 19.888 79.6852 20.112C80.0532 20.336 80.4892 20.448 80.9932 20.448C81.2732 20.448 81.5252 20.408 81.7492 20.328C81.9732 20.248 82.1692 20.144 82.3372 20.016C82.5052 19.88 82.6452 19.74 82.7572 19.596C82.8452 19.524 82.9332 19.488 83.0212 19.488C83.1012 19.488 83.1692 19.52 83.2252 19.584C83.2892 19.648 83.3212 19.72 83.3212 19.8C83.3212 19.896 83.2812 19.98 83.2012 20.052C82.9612 20.34 82.6492 20.592 82.2652 20.808C81.8812 21.016 81.4612 21.12 81.0052 21.12ZM37.8293 26.6H42.2333C42.3293 26.6 42.4133 26.636 42.4853 26.708C42.5573 26.772 42.5933 26.856 42.5933 26.96C42.5933 27.064 42.5573 27.148 42.4853 27.212C42.4133 27.276 42.3293 27.308 42.2333 27.308H38.1053L38.2253 27.104V30.476L38.0933 30.32H41.6933C41.7893 30.32 41.8733 30.356 41.9453 30.428C42.0173 30.5 42.0533 30.584 42.0533 30.68C42.0533 30.784 42.0173 30.868 41.9453 30.932C41.8733 30.996 41.7893 31.028 41.6933 31.028H38.1173L38.2253 30.908V34.364L38.1653 34.292H42.2333C42.3293 34.292 42.4133 34.328 42.4853 34.4C42.5573 34.472 42.5933 34.556 42.5933 34.652C42.5933 34.756 42.5573 34.84 42.4853 34.904C42.4133 34.968 42.3293 35 42.2333 35H37.8293C37.7333 35 37.6493 34.964 37.5773 34.892C37.5053 34.82 37.4693 34.736 37.4693 34.64V26.96C37.4693 26.864 37.5053 26.78 37.5773 26.708C37.6493 26.636 37.7333 26.6 37.8293 26.6ZM52.0176 30.8C52.0176 31.432 51.9176 32.012 51.7176 32.54C51.5256 33.06 51.2496 33.516 50.8896 33.908C50.5296 34.292 50.1016 34.592 49.6056 34.808C49.1176 35.016 48.5816 35.12 47.9976 35.12C47.4136 35.12 46.8736 35.016 46.3776 34.808C45.8896 34.592 45.4656 34.292 45.1056 33.908C44.7456 33.516 44.4656 33.06 44.2656 32.54C44.0736 32.012 43.9776 31.432 43.9776 30.8C43.9776 30.168 44.0736 29.592 44.2656 29.072C44.4656 28.544 44.7456 28.088 45.1056 27.704C45.4656 27.312 45.8896 27.012 46.3776 26.804C46.8736 26.588 47.4136 26.48 47.9976 26.48C48.5816 26.48 49.1176 26.588 49.6056 26.804C50.1016 27.012 50.5296 27.312 50.8896 27.704C51.2496 28.088 51.5256 28.544 51.7176 29.072C51.9176 29.592 52.0176 30.168 52.0176 30.8ZM51.2496 30.8C51.2496 30.088 51.1096 29.464 50.8296 28.928C50.5576 28.384 50.1776 27.96 49.6896 27.656C49.2016 27.352 48.6376 27.2 47.9976 27.2C47.3656 27.2 46.8016 27.352 46.3056 27.656C45.8176 27.96 45.4336 28.384 45.1536 28.928C44.8816 29.464 44.7456 30.088 44.7456 30.8C44.7456 31.512 44.8816 32.14 45.1536 32.684C45.4336 33.22 45.8176 33.64 46.3056 33.944C46.8016 34.248 47.3656 34.4 47.9976 34.4C48.6376 34.4 49.2016 34.248 49.6896 33.944C50.1776 33.64 50.5576 33.22 50.8296 32.684C51.1096 32.14 51.2496 31.512 51.2496 30.8ZM56.2731 35.12C55.6651 35.128 55.1371 35.032 54.6891 34.832C54.2411 34.632 53.8131 34.332 53.4051 33.932C53.3651 33.9 53.3291 33.86 53.2971 33.812C53.2731 33.764 53.2611 33.708 53.2611 33.644C53.2611 33.548 53.2971 33.46 53.3691 33.38C53.4491 33.3 53.5371 33.26 53.6331 33.26C53.7291 33.26 53.8171 33.3 53.8971 33.38C54.2091 33.716 54.5611 33.972 54.9531 34.148C55.3531 34.324 55.7811 34.412 56.2371 34.412C56.6211 34.412 56.9611 34.352 57.2571 34.232C57.5611 34.112 57.8011 33.94 57.9771 33.716C58.1531 33.492 58.2411 33.232 58.2411 32.936C58.2411 32.568 58.1411 32.272 57.9411 32.048C57.7411 31.816 57.4771 31.628 57.1491 31.484C56.8211 31.332 56.4571 31.196 56.0571 31.076C55.7291 30.98 55.4171 30.872 55.1211 30.752C54.8251 30.624 54.5611 30.472 54.3291 30.296C54.0971 30.112 53.9171 29.888 53.7891 29.624C53.6611 29.36 53.5971 29.04 53.5971 28.664C53.5971 28.24 53.7091 27.864 53.9331 27.536C54.1571 27.208 54.4731 26.952 54.8811 26.768C55.2971 26.576 55.7771 26.48 56.3211 26.48C56.7931 26.48 57.2451 26.56 57.6771 26.72C58.1171 26.88 58.4651 27.116 58.7211 27.428C58.8411 27.556 58.9011 27.672 58.9011 27.776C58.9011 27.856 58.8611 27.936 58.7811 28.016C58.7011 28.096 58.6131 28.136 58.5171 28.136C58.4371 28.136 58.3691 28.108 58.3131 28.052C58.1771 27.884 58.0051 27.736 57.7971 27.608C57.5891 27.472 57.3571 27.368 57.1011 27.296C56.8531 27.224 56.5931 27.188 56.3211 27.188C55.9451 27.188 55.6051 27.248 55.3011 27.368C55.0051 27.48 54.7691 27.644 54.5931 27.86C54.4251 28.076 54.3411 28.336 54.3411 28.64C54.3411 28.976 54.4371 29.252 54.6291 29.468C54.8211 29.684 55.0731 29.864 55.3851 30.008C55.6971 30.144 56.0291 30.272 56.3811 30.392C56.7251 30.488 57.0531 30.6 57.3651 30.728C57.6851 30.848 57.9651 31 58.2051 31.184C58.4531 31.368 58.6451 31.6 58.7811 31.88C58.9251 32.16 58.9971 32.512 58.9971 32.936C58.9971 33.344 58.8811 33.712 58.6491 34.04C58.4171 34.368 58.0971 34.628 57.6891 34.82C57.2891 35.012 56.8171 35.112 56.2731 35.12ZM67.0673 27.224C67.1633 27.288 67.2193 27.372 67.2353 27.476C67.2513 27.572 67.2273 27.668 67.1633 27.764C67.1073 27.836 67.0353 27.876 66.9473 27.884C66.8593 27.892 66.7753 27.876 66.6953 27.836C66.3913 27.636 66.0633 27.48 65.7113 27.368C65.3673 27.256 64.9953 27.2 64.5953 27.2C64.1073 27.2 63.6513 27.288 63.2273 27.464C62.8113 27.632 62.4473 27.88 62.1353 28.208C61.8233 28.528 61.5793 28.908 61.4033 29.348C61.2353 29.788 61.1513 30.272 61.1513 30.8C61.1513 31.344 61.2393 31.84 61.4153 32.288C61.5913 32.728 61.8353 33.108 62.1473 33.428C62.4673 33.748 62.8353 33.992 63.2513 34.16C63.6673 34.328 64.1153 34.412 64.5953 34.412C64.9873 34.412 65.3553 34.356 65.6993 34.244C66.0513 34.132 66.3793 33.98 66.6833 33.788C66.7633 33.74 66.8473 33.724 66.9353 33.74C67.0313 33.748 67.1073 33.792 67.1633 33.872C67.2353 33.96 67.2593 34.056 67.2353 34.16C67.2193 34.256 67.1673 34.332 67.0793 34.388C66.8793 34.516 66.6433 34.636 66.3713 34.748C66.0993 34.86 65.8113 34.948 65.5073 35.012C65.2033 35.084 64.8993 35.12 64.5953 35.12C64.0193 35.12 63.4793 35.016 62.9753 34.808C62.4713 34.6 62.0233 34.308 61.6313 33.932C61.2393 33.548 60.9313 33.092 60.7073 32.564C60.4913 32.036 60.3833 31.448 60.3833 30.8C60.3833 30.176 60.4913 29.604 60.7073 29.084C60.9233 28.556 61.2233 28.1 61.6073 27.716C61.9913 27.332 62.4393 27.032 62.9513 26.816C63.4633 26.6 64.0113 26.492 64.5953 26.492C65.0513 26.492 65.4913 26.556 65.9153 26.684C66.3393 26.812 66.7233 26.992 67.0673 27.224ZM68.9312 35C68.7952 35 68.6912 34.956 68.6192 34.868C68.5472 34.78 68.5112 34.668 68.5112 34.532V34.28C68.5112 34.136 68.5472 34.024 68.6192 33.944C68.6912 33.864 68.7952 33.824 68.9312 33.824H69.0152C69.1512 33.824 69.2552 33.864 69.3272 33.944C69.3992 34.024 69.4352 34.136 69.4352 34.28V34.532C69.4352 34.668 69.3992 34.78 69.3272 34.868C69.2552 34.956 69.1512 35 69.0152 35H68.9312ZM74.6272 26.6C75.0752 26.6 75.4712 26.704 75.8152 26.912C76.1592 27.112 76.4312 27.392 76.6312 27.752C76.8312 28.112 76.9312 28.524 76.9312 28.988C76.9312 29.452 76.8312 29.872 76.6312 30.248C76.4312 30.616 76.1592 30.908 75.8152 31.124C75.4712 31.34 75.0752 31.448 74.6272 31.448H72.0832L72.1432 31.328V34.64C72.1432 34.736 72.1072 34.82 72.0352 34.892C71.9632 34.964 71.8792 35 71.7832 35C71.6712 35 71.5832 34.964 71.5192 34.892C71.4552 34.82 71.4232 34.736 71.4232 34.64V26.96C71.4232 26.864 71.4592 26.78 71.5312 26.708C71.6032 26.636 71.6872 26.6 71.7832 26.6H74.6272ZM74.6272 30.752C74.9392 30.752 75.2112 30.676 75.4432 30.524C75.6752 30.364 75.8552 30.152 75.9832 29.888C76.1192 29.616 76.1872 29.316 76.1872 28.988C76.1872 28.66 76.1192 28.372 75.9832 28.124C75.8552 27.868 75.6752 27.668 75.4432 27.524C75.2112 27.38 74.9392 27.308 74.6272 27.308H72.0832L72.1432 27.2V30.824L72.0712 30.752H74.6272ZM83.4556 34.292C83.5516 34.292 83.6356 34.328 83.7076 34.4C83.7796 34.464 83.8156 34.544 83.8156 34.64C83.8156 34.744 83.7796 34.832 83.7076 34.904C83.6356 34.968 83.5516 35 83.4556 35H79.1716C79.0676 35 78.9796 34.964 78.9076 34.892C78.8436 34.82 78.8116 34.736 78.8116 34.64V26.96C78.8116 26.864 78.8476 26.78 78.9196 26.708C78.9916 26.636 79.0836 26.6 79.1956 26.6C79.2916 26.6 79.3756 26.636 79.4476 26.708C79.5276 26.78 79.5676 26.864 79.5676 26.96V34.496L79.3396 34.292H83.4556Z" fill="#040305"/>
<path d="M97.0703 4V42" stroke="black" stroke-width="0.23" stroke-linecap="round"/>
<mask id="mask0_9231_671" style="mask-type:luminance" maskUnits="userSpaceOnUse" x="110" y="0" width="135" height="46">
<path d="M245 0.873596H110.07V45.1264H245V0.873596Z" fill="white"/>
</mask>
<g mask="url(#mask0_9231_671)">
<path d="M176.094 23.1076C176.251 22.975 176.377 22.8086 176.462 22.6208C176.547 22.433 176.589 22.2284 176.585 22.0222C176.583 20.5866 176.291 19.1661 175.728 17.8463C175.21 16.6563 174.476 15.5733 173.563 14.6524C172.681 13.7627 171.625 13.0655 170.461 12.6048C169.303 12.144 168.069 11.9084 166.823 11.9105C165.133 11.9113 163.474 12.3716 162.025 13.2422C160.475 14.1685 159.204 15.4984 158.348 17.0904C157.362 18.9616 156.877 21.0566 156.939 23.1716C156.898 25.1333 157.362 27.0725 158.287 28.8019C159.17 30.4093 160.486 31.7354 162.085 32.6291C163.85 33.5899 165.836 34.0697 167.844 34.0207C169.281 34.0292 170.699 33.7074 171.992 33.08C173.16 32.5412 174.22 31.7911 175.117 30.8674C175.313 30.7177 175.474 30.5262 175.587 30.3068C175.701 30.0874 175.764 29.8454 175.773 29.5984C175.771 29.2296 175.624 28.8764 175.364 28.6157C175.104 28.355 174.751 28.2078 174.383 28.2063C174 28.2158 173.629 28.3445 173.322 28.5746C172.93 28.9906 172.499 29.3679 172.035 29.7013C171.478 30.0969 170.866 30.4074 170.218 30.6228C169.413 30.8829 168.572 31.0074 167.726 30.9912C166.321 31.0233 164.935 30.6615 163.724 29.9465C162.587 29.2617 161.66 28.277 161.044 27.0999C160.472 25.9967 160.15 24.7802 160.101 23.5376H174.95C175.372 23.5429 175.78 23.3891 176.094 23.1076ZM162.228 16.8219C162.843 16.21 163.581 15.7355 164.393 15.4298C165.169 15.1347 165.992 14.9822 166.823 14.9795C167.824 14.9784 168.812 15.2043 169.714 15.6403C170.616 16.0763 171.408 16.711 172.03 17.4971C172.679 18.3249 173.057 19.3331 173.113 20.3843V20.712H160.282C160.368 20.2224 160.5 19.7419 160.676 19.2768C161.013 18.357 161.542 17.5197 162.227 16.8207" fill="#040305"/>
<path d="M201.541 22.9642C201.577 24.9524 201.091 26.9152 200.132 28.656C199.234 30.2793 197.923 31.6355 196.333 32.5873C194.71 33.552 192.852 34.0487 190.965 34.0226C189.089 34.0472 187.242 33.5613 185.62 32.6167C183.999 31.6721 182.663 30.3041 181.755 28.6584C180.796 26.9176 180.31 24.9548 180.346 22.9665C180.31 20.9783 180.796 19.0156 181.755 17.2747C182.663 15.6296 183.998 14.2619 185.619 13.3174C187.241 12.3728 189.087 11.8866 190.962 11.9105C192.849 11.8848 194.707 12.3814 196.33 13.3458C197.92 14.2974 199.23 15.6532 200.129 17.2759C201.088 19.0168 201.574 20.9795 201.538 22.9677M198.23 22.9677C198.263 21.5236 197.933 20.0944 197.27 18.8116C196.661 17.657 195.759 16.6831 194.657 15.9872C193.55 15.2897 192.266 14.927 190.958 14.9424C189.64 14.9229 188.344 15.2841 187.225 15.983C186.12 16.6817 185.212 17.6545 184.591 18.8074C183.915 20.0861 183.578 21.517 183.611 22.9636C183.582 24.4032 183.919 25.8266 184.59 27.1C185.206 28.2621 186.114 29.2431 187.224 29.9465C188.344 30.6476 189.641 31.0104 190.961 30.9912C192.269 31.0067 193.553 30.6439 194.66 29.9465C195.766 29.2458 196.668 28.2637 197.273 27.1C197.931 25.8231 198.261 24.4017 198.233 22.9648" fill="#040305"/>
<path d="M205.216 30.2527C205.003 29.9167 204.896 29.524 204.909 29.126C204.929 28.9102 205 28.7025 205.118 28.5207C205.236 28.3389 205.395 28.1885 205.584 28.0825C205.881 27.8924 206.233 27.806 206.584 27.8367C206.975 27.8762 207.334 28.0675 207.586 28.3695C208.315 29.2437 209.201 29.9728 210.198 30.5188C211.311 31.0821 212.547 31.3568 213.793 31.3177C214.45 31.2855 215.102 31.1755 215.733 30.99C216.373 30.8163 216.952 30.4694 217.408 29.9871C217.874 29.4661 218.116 28.782 218.083 28.0831C218.099 27.7476 218.046 27.4124 217.927 27.0986C217.807 26.7849 217.624 26.4994 217.389 26.2603C216.864 25.7723 216.245 25.3965 215.57 25.1558C214.789 24.8585 213.991 24.6055 213.18 24.3981C212.282 24.1522 211.397 23.8793 210.526 23.5795C209.694 23.2988 208.904 22.9061 208.178 22.4121C207.493 21.9443 206.92 21.3287 206.503 20.6103C206.056 19.7893 205.838 18.863 205.87 17.9283C205.844 16.7821 206.196 15.6594 206.871 14.7343C207.563 13.8132 208.486 13.0928 209.546 12.6466C210.72 12.1439 211.985 11.8932 213.261 11.9105C214.065 11.9155 214.866 12.0047 215.651 12.1766C216.499 12.3617 217.317 12.6651 218.081 13.0778C218.884 13.5129 219.592 14.1046 220.163 14.818C220.413 15.1021 220.557 15.4636 220.573 15.8418C220.58 16.0555 220.536 16.2679 220.443 16.4606C220.351 16.6533 220.213 16.8204 220.041 16.9475C219.753 17.1625 219.4 17.2709 219.041 17.2543C218.695 17.2511 218.365 17.1114 218.122 16.8656C217.529 16.163 216.781 15.6099 215.936 15.251C215.038 14.8744 214.072 14.6864 213.098 14.6984C212.459 14.7005 211.825 14.8041 211.218 15.0052C210.623 15.1908 210.083 15.5216 209.647 15.968C209.425 16.2179 209.255 16.5093 209.146 16.8254C209.038 17.1415 208.992 17.4761 209.013 17.8099C209.014 18.4838 209.278 19.1305 209.748 19.6123C210.285 20.1212 210.926 20.5058 211.628 20.7389C212.417 21.0248 213.288 21.3038 214.241 21.5761C215.113 21.7942 215.95 22.0468 216.753 22.3338C217.529 22.6063 218.265 22.985 218.938 23.4593C219.589 23.9213 220.12 24.5317 220.489 25.2401C220.898 26.088 221.094 27.023 221.061 27.9641C221.088 29.1387 220.713 30.2871 219.999 31.219C219.268 32.1513 218.302 32.8719 217.201 33.3073C216.015 33.7907 214.745 34.0346 213.465 34.0249C211.942 34.0206 210.433 33.7368 209.013 33.1877C207.495 32.5913 206.178 31.5752 205.215 30.2574" fill="#040305"/>
<path d="M235.154 11.9105C236.434 11.894 237.711 12.0456 238.953 12.3614C239.911 12.587 240.814 13.0049 241.607 13.5897C241.897 13.7855 242.137 14.0468 242.307 14.3527C242.477 14.6585 242.573 15.0003 242.588 15.3503C242.586 15.7361 242.457 16.1105 242.22 16.4147C242.103 16.5742 241.948 16.7023 241.77 16.7879C241.592 16.8735 241.395 16.914 241.198 16.9057C240.89 16.918 240.585 16.8399 240.32 16.6809C240.083 16.5275 239.863 16.3488 239.664 16.148C239.416 15.9111 239.134 15.7112 238.829 15.5542C238.372 15.3504 237.891 15.2059 237.398 15.1242C236.779 15.0025 236.15 14.941 235.519 14.9407C234.131 14.9107 232.764 15.2799 231.578 16.0045C230.452 16.7099 229.53 17.6985 228.903 18.872C228.235 20.131 227.898 21.5396 227.922 22.9654C227.897 24.3868 228.22 25.7927 228.861 27.0605C229.462 28.2329 230.364 29.2226 231.476 29.9268C232.638 30.6495 233.985 31.0192 235.353 30.9913C236.116 31.0137 236.879 30.931 237.619 30.7455C238.121 30.6045 238.607 30.4124 239.069 30.172C239.466 29.9502 239.83 29.6747 240.152 29.3533C240.294 29.2128 240.463 29.1038 240.65 29.0332C240.836 28.9626 241.035 28.9321 241.234 28.9437C241.437 28.9328 241.639 28.9677 241.826 29.0456C242.013 29.1235 242.181 29.2426 242.316 29.394C242.578 29.7016 242.717 30.0959 242.706 30.5003C242.665 30.826 242.552 31.1384 242.375 31.4147C242.198 31.6909 241.962 31.924 241.683 32.097C240.849 32.7207 239.908 33.1855 238.907 33.4682C237.635 33.8511 236.313 34.0374 234.985 34.0208C233.073 34.0639 231.189 33.5596 229.552 32.567C228.005 31.6034 226.754 30.229 225.938 28.5962C225.065 26.8499 224.624 24.9186 224.652 22.9654C224.623 21.0125 225.08 19.0833 225.982 17.3524C226.85 15.6762 228.17 14.2777 229.791 13.3157C231.412 12.3537 233.27 11.8669 235.154 11.9105Z" fill="#040305"/>
<path d="M127.065 13.6806C125.281 12.5234 123.201 11.9077 121.076 11.9077C118.951 11.9077 116.871 12.5234 115.087 13.6806C114.907 13.7975 114.755 13.9534 114.643 14.1369C114.531 14.3205 114.462 14.5269 114.44 14.7409C114.417 14.9598 114.442 15.1813 114.516 15.3889C114.589 15.5965 114.707 15.785 114.863 15.9405L115.46 16.5385C115.595 16.6751 115.756 16.7836 115.933 16.8577C116.11 16.9318 116.3 16.9701 116.492 16.9703C116.76 16.9701 117.022 16.8951 117.249 16.7538C118.399 16.0425 119.723 15.6657 121.074 15.6657C122.425 15.6657 123.749 16.0425 124.898 16.7538C125.177 16.9264 125.506 16.9991 125.831 16.96C126.156 16.9209 126.458 16.7723 126.688 16.5385L127.284 15.9405C127.44 15.785 127.559 15.5964 127.632 15.3886C127.705 15.1809 127.731 14.9593 127.707 14.7403C127.686 14.5264 127.616 14.3201 127.504 14.1367C127.392 13.9533 127.241 13.7974 127.061 13.6806" fill="#008691"/>
<path d="M119.381 30.1863C118.247 29.9186 117.192 29.3847 116.304 28.6285C115.416 27.8724 114.72 26.9156 114.273 25.837C113.826 24.7584 113.641 23.5887 113.733 22.4243C113.824 21.2598 114.191 20.1339 114.802 19.1392C114.967 18.8706 115.036 18.5539 114.998 18.2407C114.96 17.9276 114.818 17.6365 114.594 17.4152L113.997 16.8136C113.848 16.6637 113.667 16.5493 113.468 16.4787C113.268 16.4081 113.056 16.3832 112.846 16.4057C112.641 16.4267 112.443 16.4935 112.268 16.6014C112.092 16.7093 111.943 16.8554 111.832 17.0289C110.682 18.8066 110.07 20.8801 110.07 22.9988C110.081 25.5178 110.947 27.958 112.525 29.9181C114.103 31.8783 116.3 33.2416 118.753 33.7839C118.848 33.8039 118.945 33.8142 119.042 33.8144C119.357 33.814 119.663 33.7048 119.907 33.5052C120.072 33.3725 120.205 33.2041 120.297 33.0127C120.388 32.8213 120.435 32.6117 120.435 32.3995V31.5623C120.437 31.2481 120.335 30.9421 120.144 30.6929C119.953 30.4437 119.684 30.265 119.381 30.1863Z" fill="#EB5D81"/>
<path d="M139.452 11.9643C136.534 11.9677 133.736 13.1314 131.672 15.2001C129.609 17.2689 128.448 20.0738 128.445 22.9994L128.451 23.0479L128.444 23.1029C128.414 24.7915 127.81 26.4193 126.732 27.7174C125.654 29.0154 124.167 29.906 122.516 30.2419C122.292 30.287 122.09 30.4084 121.945 30.5856C121.799 30.7628 121.72 30.9849 121.719 31.2143V32.8989C121.719 33.0446 121.75 33.1885 121.811 33.3207C121.873 33.4529 121.962 33.5702 122.072 33.6644C122.18 33.7564 122.306 33.824 122.442 33.8623C122.578 33.9006 122.721 33.9088 122.86 33.8862C125.44 33.471 127.786 32.1459 129.477 30.1498C131.168 28.1537 132.093 25.6177 132.084 22.9988C132.084 21.5379 132.516 20.1099 133.326 18.8952C134.136 17.6806 135.286 16.7339 136.633 16.1749C137.979 15.6159 139.46 15.4697 140.89 15.7548C142.319 16.0399 143.632 16.7435 144.662 17.7765C145.692 18.8096 146.394 20.1257 146.678 21.5586C146.962 22.9914 146.816 24.4766 146.259 25.8263C145.701 27.176 144.757 28.3296 143.545 29.1412C142.334 29.9529 140.909 30.3861 139.452 30.3861C138.969 30.3861 138.507 30.5782 138.165 30.9203C137.824 31.2623 137.633 31.7263 137.633 32.21C137.633 32.6937 137.824 33.1577 138.165 33.4997C138.507 33.8418 138.969 34.0339 139.452 34.0339C140.904 34.0446 142.344 33.7671 143.689 33.2174C145.034 32.6676 146.257 31.8565 147.287 30.8308C148.318 29.8051 149.136 28.585 149.694 27.2408C150.253 25.8967 150.54 24.4551 150.54 22.9991C150.54 21.5432 150.253 20.1016 149.694 18.7574C149.136 17.4133 148.318 16.1932 147.287 15.1675C146.257 14.1417 145.034 13.3306 143.689 12.7809C142.344 12.2311 140.904 11.9536 139.452 11.9643Z" fill="#008691"/>
</g>
</g>
<defs>
<clipPath id="clip0_9231_671">
<rect width="244.93" height="44.2528" fill="white" transform="translate(0.0703125 0.873596)"/>
</clipPath>
</defs>
</svg>
